<svg xmlns="http://www.w3.org/2000/svg" height="48" viewBox="0 -960 960 960" width="48"><path d="M216-259q64-45 128.045-68.5 64.046-23.5 136-23.5Q552-351 616-327.5 680-304 746-259q43-56 60-109t17-112q0-146-98.5-244.5T480-823q-146 0-244.5 98.5T137-480q0 59 17.5 112T216-259Zm263.854-179Q417-438 374-481.146q-43-43.145-43-106Q331-650 374.146-693q43.145-43 106-43Q543-736 586-692.854q43 43.145 43 106Q629-524 585.854-481q-43.145 43-106 43Zm.614 374Q395-64 319.465-96.763q-75.536-32.763-132.5-90Q130-244 97-319.266q-33-75.266-33-161.5Q64-565 97.21-640.413q33.211-75.414 89.965-132.737 56.754-57.324 132.056-90.087Q394.532-896 480.766-896q84.234 0 159.647 33.211 75.414 33.21 132.5 90Q830-716 863-640.549q33 75.452 33 160.081 0 85.468-32.763 161.003-32.763 75.536-90.087 132.29-57.323 56.754-132.688 89.965Q565.097-64 480.468-64ZM480-137q53 0 104.5-15T688-207q-51.586-34.967-104.293-52.983Q531-278 480-278q-51 0-103.5 18T273-206.697q51 39.304 102.5 54.5Q427-137 480-137Zm0-374q33 0 54.5-21.5T556-587q0-33-21.5-54.5T480-663q-33 0-54.5 21.5T404-587q0 33 21.5 54.5T480-511Zm0-76Zm0 379Z"/></svg>