<svg xmlns="http://www.w3.org/2000/svg" height="48" viewBox="0 -960 960 960" width="48"><path d="M235.694-78.001q-29.596 0-50.145-20.548-20.548-20.549-20.548-50.145v-404.151q0-29.894 20.548-50.293 20.549-20.399 50.145-20.399h57.615v-91.769q0-78.665 54.495-133.178 54.495-54.513 132.194-54.513 77.698 0 132.196 54.513 54.497 54.513 54.497 133.178v91.769h57.615q29.596 0 50.145 20.399 20.548 20.399 20.548 50.293v404.151q0 29.596-20.548 50.144Q753.902-78 724.306-78H235.694Zm0-58.384h488.612q5.385 0 8.847-3.462 3.462-3.462 3.462-8.847v-404.151q0-5.385-3.462-8.847-3.462-3.462-8.847-3.462H235.694q-5.385 0-8.847 3.462-3.462 3.462-3.462 8.847v404.151q0 5.385 3.462 8.847 3.462 3.462 8.847 3.462Zm244.554-138.616q30.906 0 52.713-21.61 21.808-21.611 21.808-52.007 0-29.459-22.056-52.689-22.055-23.231-52.961-23.231t-52.713 23.31q-21.808 23.31-21.808 53.269t22.056 51.458q22.055 21.5 52.961 21.5ZM351.693-623.537h256.614v-91.769q0-54.045-37.416-91.676-37.416-37.632-90.868-37.632t-90.891 37.632q-37.439 37.631-37.439 91.676v91.769ZM223.385-136.385v-428.769 428.769Z"/></svg>