<svg xmlns="http://www.w3.org/2000/svg" height="48" viewBox="0 -960 960 960" width="48"><path d="M480-64q-85.64 0-161.98-32.52-76.34-32.52-132.66-88.84-56.32-56.32-88.84-132.66T64-480q0-85.64 32.52-161.98 32.52-76.34 88.84-132.66 56.32-56.32 132.66-88.84T480-896q85.64 0 161.98 32.52 76.34 32.52 132.66 88.84 56.32 56.32 88.84 132.66T896-480q0 85.64-32.52 161.98-32.52 76.34-88.84 132.66-56.32 56.32-132.66 88.84T480-64Zm0-73q143.375 0 243.188-99.812Q823-336.625 823-480q0-59.662-20-114.831Q783-650 746-696L264-214q45 38 100.493 57.5Q419.987-137 480-137ZM215-264l481-481q-46-38-101.169-58T480-823q-143.375 0-243.188 99.812Q137-623.375 137-480q0 60.013 21.5 115.507Q180-309 215-264Z"/></svg>