<svg xmlns="http://www.w3.org/2000/svg" height="48" viewBox="0 -960 960 960" width="48"><path d="m377-64-21-130q-16-6-35.309-16.727Q301.382-221.455 287-233l-122 55L61-364l109-81.165q-1-6.761-1.5-17.635-.5-10.874-.5-19.2 0-7.457.5-17.525.5-10.068 1.5-18.475L61-598l104-185 120 55q14-11 34-22.5t37-17.5l21-129h207l20 129q17 6 37.5 17.5T675-728l121-55 104 185-111 79q1 9 2 20t1 19q0 8-1 18.5t-1 18.5l109 79-104 186-122-55q-14 11-33 22.5T605-194L584-64H377Zm102-273q59.8 0 101.9-42.059 42.1-42.058 42.1-101.8 0-59.741-42.1-101.941T479-625q-60 0-102 42.059-42 42.058-42 101.8 0 59.741 42 101.941T479-337Zm-.618-73Q449-410 428.5-430.826 408-451.652 408-481.118q0-29.465 20.706-50.174 20.706-20.708 50-20.708T529-531.174q21 20.826 21 50.292 0 29.465-21.118 50.174Q507.765-410 478.382-410ZM480-481Zm-44 344h88.212l14.038-113q33.75-8 63.663-25.085Q631.827-292.17 657.182-317L762-271l40-72-93-69q4-16.636 7-33.964t3-35.182q0-17.854-2.5-34.354T710-550l92-68-39-72-106 45q-23-26-53.073-44.295Q573.853-707.59 537.598-713L525-824h-90l-13 111q-36 8-66.5 25.5T302-645l-103.717-45L157-618l93 69q-4 18-6.5 34.5t-2.5 32.985Q241-465 243.5-448t6.5 36l-93 69 41 72 105-46q26 26 56 43t63 25l14 112Z"/></svg>