<svg xmlns="http://www.w3.org/2000/svg" height="48" viewBox="0 -960 960 960" width="48"><path d="M730.176-71q-50.759 0-86.468-35.388Q608-141.776 608-192.331q0-6.367 1.5-15.686 1.5-9.319 4.5-16.774L316.288-397Q300-380 277.5-370 255-360 232-360q-50.167 0-86.083-35.309Q110-430.618 110-481.059t35.917-85.691Q181.833-602 232-602q22.646 0 44.823 8.5T316-568l298-170.292q-3-6.936-4.5-15.606T608-770q0-50.417 35.532-85.708Q679.064-891 729.824-891q49.676 0 85.426 35.309t35.75 85.75q0 50.441-35.917 85.691Q779.167-649 729-649q-24.354 0-45.677-7t-37.611-24L348-515.791q2 7.741 3.5 17.917 1.5 10.176 1.5 17.115 0 6.94-1.5 14.374-1.5 7.435-3.5 15.176L645.712-283Q662-297 682.5-305q20.5-8 46.5-8 50.167 0 86.083 35.309Q851-242.382 851-191.941t-35.573 85.691Q779.853-71 730.176-71Zm-.755-651Q750-722 764-735.921t14-34.5Q778-791 764.255-805q-13.744-14-34.062-14-20.743 0-34.968 13.745Q681-791.511 681-771.193q0 20.743 13.921 34.968Q708.842-722 729.421-722Zm-498 289Q252-433 266-446.921t14-34.5Q280-502 266.255-516q-13.744-14-34.062-14-20.743 0-34.968 13.745Q183-502.511 183-482.193q0 20.743 13.921 34.968Q210.842-433 231.421-433Zm498 289Q750-144 764-157.921t14-34.5Q778-213 764.255-227q-13.744-14-34.062-14-20.743 0-34.968 13.745Q681-213.511 681-193.193q0 20.743 13.921 34.968Q708.842-144 729.421-144ZM730-771ZM232-482Zm498 289Z"/></svg>